{"title":"The Last Stand 2013 1080p x264 ACC - alrmothe","uid":8414828,"size":6197892105,"categoryP":"video","categoryS":"hd___movies","magnet":"?xt=urn:btih:2851560683e5f8e5aad7d736741534d89621ad3f&amp;dn=The+Last+Stand+2013+1080p+x264+ACC+-+alrmothe&amp;tr=udp%3A%2F%2Ftracker.openbittorrent.com%3A80&amp;tr=udp%3A%2F%2Fopen.demonii.com%3A1337&amp;tr=udp%3A%2F%2Ftracker.coppersurfer.tk%3A6969&amp;tr=udp%3A%2F%2Fexodus.desync.com%3A6969","seeders":1,"leechers":0,"uploader":".alrmothe","files":10,"time":1367004236,"description":"***************************************************************\n\nThe Last Stand 2013 1080p x264  ACC - alrmothe\n\n***************************************************************\n\nTitle : The Last Stand\nYEAR: 2013\nGENRE : Action | Crime | Thriller       \nimdb URL :http://www.imdb.com/title/tt1549920/\nFormat: MP4\nOverall bit rate: 7665 kbps\nFormat version: Version 4 / Version 2\nFile size: 5.73 GiB\nDuration:  1h 47mn\nSub:Arabic,English,Dutch,Swedish,Norwegian,Danish\n***************************************************************\n\nVideo\nFormat : AVC \nFormat/Info : Advanced Video Codec \nFormat profile : &lt;a class=&quot;__cf_email__&quot; href=&quot;/cdn-cgi/l/email-protection&quot; data-cfemail=&quot;4d05242a250d0179637d&quot;&gt;[email&amp;#160;protected]&lt;/a&gt;&lt;script cf-hash='f9e31' type=&quot;text/javascript&quot;&gt;\n/* &lt;![CDATA[ */!function(){try{var t=&quot;currentScript&quot;in document?document.currentScript:function(){for(var t=document.getElementsByTagName(&quot;script&quot;),e=t.length;e--;)if(t[e].getAttribute(&quot;cf-hash&quot;))return t[e]}();if(t&amp;&amp;t.previousSibling){var e,r,n,i,c=t.previousSibling,a=c.getAttribute(&quot;data-cfemail&quot;);if(a){for(e=&quot;&quot;,r=parseInt(a.substr(0,2),16),n=2;a.length-n;n+=2)i=parseInt(a.substr(n,2),16)^r,e+=String.fromCharCode(i);e=document.createTextNode(e),c.parentNode.replaceChild(e,c)}}}catch(u){}}();/* ]]&gt; */&lt;/script&gt; \nFormat settings, CABAC : Yes \nFormat settings, ReFrames : 4 frames  \nCodec ID : V_MPEG4/ISO/AVC  \nBit rate : 7212 kbps \nWidth : 1920 pixels \nHeight : 804 pixels \nDisplay aspect ratio : 16:9 \nFrame rate : 24 fps \nColor space : YUV \nChroma subsampling : 4:2:0 \nBit depth : 8 bits \nScan type : Progressive \nBits/(Pixel*Frame) : 0.195 \nStream size: 5.26 GiB \n\n\nAudio \nFormat: ACC\nBit rate :448 Kbps\nChannel(s) : 6 channels\nChannel positions:Front: L C R, Side: L R, LFE\nSampling rate: 48.0 KHz\nBit depth: 24 bits\nCompression mode: Lossy\nStream size: 343 GiB\nLanguage : English\n\n***************************************************************\n\nsample: yes\n\n\nSource &lt;a href=&quot;\nhttp://img197.imageshack.us/img197/4396/vlcsnap2013042616h30m15.png&quot; rel=&quot;nofollow&quot; target=&quot;_NEW&quot;&gt;\nhttp://img197.imageshack.us/img197/4396/vlcsnap2013042616h30m15.png&lt;/a&gt;\n\n\nAfter Encoded  &lt;a href=&quot;\nhttp://img600.imageshack.us/img600/1398/vlcsnap2013042616h34m22.png&quot; rel=&quot;nofollow&quot; target=&quot;_NEW&quot;&gt;\nhttp://img600.imageshack.us/img600/1398/vlcsnap2013042616h34m22.png&lt;/a&gt;\n\n\nScreenshots &lt;a href=&quot;\nhttp://img836.imageshack.us/img836/8228/vlcsnap2013042616h21m25.png&quot; rel=&quot;nofollow&quot; target=&quot;_NEW&quot;&gt;\nhttp://img836.imageshack.us/img836/8228/vlcsnap2013042616h21m25.png&lt;/a&gt; &lt;a href=&quot;\nhttp://img600.imageshack.us/img600/56/vlcsnap2013042616h28m52.png&quot; rel=&quot;nofollow&quot; target=&quot;_NEW&quot;&gt;\nhttp://img600.imageshack.us/img600/56/vlcsnap2013042616h28m52.png&lt;/a&gt; &lt;a href=&quot;\nhttp://img12.imageshack.us/img12/4223/vlcsnap2013042616h42m37.png&quot; rel=&quot;nofollow&quot; target=&quot;_NEW&quot;&gt;\nhttp://img12.imageshack.us/img12/4223/vlcsnap2013042616h42m37.png&lt;/a&gt; &lt;a href=&quot;\nhttp://img823.imageshack.us/img823/8288/vlcsnap2013042616h45m43.png&quot; rel=&quot;nofollow&quot; target=&quot;_NEW&quot;&gt;\nhttp://img823.imageshack.us/img823/8288/vlcsnap2013042616h45m43.png&lt;/a&gt; &lt;a href=&quot;\nhttp://img96.imageshack.us/img96/4241/vlcsnap2013042616h46m22.png&quot; rel=&quot;nofollow&quot; target=&quot;_NEW&quot;&gt;\nhttp://img96.imageshack.us/img96/4241/vlcsnap2013042616h46m22.png&lt;/a&gt; &lt;a href=&quot;\nhttp://img844.imageshack.us/img844/4682/vlcsnap2013042616h53m06.png&quot; rel=&quot;nofollow&quot; target=&quot;_NEW&quot;&gt;\nhttp://img844.imageshack.us/img844/4682/vlcsnap2013042616h53m06.png&lt;/a&gt;\n","torrent":{"xt":"urn:btih:2851560683e5f8e5aad7d736741534d89621ad3f","amp;dn":"The+Last+Stand+2013+1080p+x264+ACC+-+alrmothe","amp;tr":["udp%3A%2F%2Ftracker.openbittorrent.com%3A80","udp%3A%2F%2Fopen.demonii.com%3A1337","udp%3A%2F%2Ftracker.coppersurfer.tk%3A6969","udp%3A%2F%2Fexodus.desync.com%3A6969"],"infoHash":"2851560683e5f8e5aad7d736741534d89621ad3f","infoHashBuffer":{"type":"Buffer","data":[40,81,86,6,131,229,248,229,170,215,215,54,116,21,52,216,150,33,173,63]},"announce":[],"urlList":[]}}